<svg width="720" height="480" viewBox="0 0 720 480" fill="none" xmlns="http://www.w3.org/2000/svg">
  <rect width="720" height="480" rx="48" fill="#FFF7ED"/>
  <circle cx="600" cy="96" r="56" fill="#FDE68A"/>
  <path d="M116 246L360 82L604 246V408C604 424.569 590.569 438 574 438H146C129.431 438 116 424.569 116 408V246Z" fill="#F97316"/>
  <path d="M83 256L342.697 81.133C353.159 74.088 366.841 74.088 377.303 81.133L637 256" stroke="#0F766E" stroke-width="34" stroke-linecap="round"/>
  <rect x="232" y="286" width="96" height="152" rx="24" fill="#7C2D12"/>
  <rect x="390" y="286" width="116" height="92" rx="24" fill="#ECFEFF"/>
  <path d="M414 286V378M390 332H506" stroke="#0891B2" stroke-width="10" stroke-linecap="round"/>
  <circle cx="278" cy="362" r="8" fill="#FDE68A"/>
  <path d="M188 242C188 209.967 213.967 184 246 184H474C506.033 184 532 209.967 532 242V260H188V242Z" fill="#FDE68A"/>
  <circle cx="210" cy="164" r="30" fill="#14B8A6"/>
  <circle cx="256" cy="152" r="42" fill="#0F766E"/>
  <circle cx="308" cy="166" r="28" fill="#14B8A6"/>
  <rect x="180" y="358" width="64" height="80" rx="24" fill="#FB923C"/>
  <circle cx="212" cy="330" r="32" fill="#FED7AA"/>
  <rect x="500" y="354" width="58" height="84" rx="22" fill="#0EA5E9"/>
  <circle cx="529" cy="326" r="29" fill="#FCD34D"/>
  <rect x="330" y="336" width="70" height="102" rx="26" fill="#14B8A6"/>
  <circle cx="365" cy="304" r="34" fill="#FDBA74"/>
  <path d="M160 438H620" stroke="#134E4A" stroke-width="14" stroke-linecap="round"/>
  <path d="M72 386C102 357 132 357 162 386" stroke="#0F766E" stroke-width="12" stroke-linecap="round"/>
  <path d="M572 382C602 353 632 353 662 382" stroke="#0F766E" stroke-width="12" stroke-linecap="round"/>
</svg>
